<?xml version="1.0" encoding="UTF-8"?>
<svg id="Camada_2" data-name="Camada 2" xmlns="http://www.w3.org/2000/svg" viewBox="0 0 1028.97 415.63">
  <defs>
    <style>
      .cls-1 {
        fill: none;
      }

      .cls-2 {
        fill: #ffffff;
      }
    </style>
  </defs>
  <g id="Layer_1" data-name="Layer 1">
    <path class="cls-1" d="M292.86,109.63c-1.17-4.12-2.4-8.18-3.72-12.14-11.94,5.23-24.95,9.34-38.75,12.14h42.47Z"/>
    <path class="cls-1" d="M897.85,61.99c3.69,7.3,7.06,15.05,10.12,23.18,16.1-8.21,29.64-18.65,39.71-30.64-25.29-20.9-55.84-35.63-89.32-41.98,14.77,10.42,28.22,27.12,39.49,49.44Z"/>
    <path class="cls-1" d="M910.97,93.61c10.91,32.32,16.92,70.04,17.35,109.56h91.51c-1.27-56.56-26.25-107.38-65.43-142.81-11.07,13.1-25.9,24.42-43.44,33.25Z"/>
    <path class="cls-1" d="M910.97,321.76c17.54,8.83,32.37,20.15,43.44,33.25,39.18-35.44,64.16-86.25,65.43-142.81h-91.51c-.43,39.52-6.44,77.24-17.35,109.56Z"/>
    <path class="cls-1" d="M276.19,66.06c-17.47-34.61-40.05-54.57-63.99-56.81v95.54c27.17-.57,52.48-6.27,73.97-15.75-3-8.07-6.33-15.76-9.98-22.98Z"/>
    <path class="cls-1" d="M212.2,406.13c23.94-2.23,46.52-22.2,63.99-56.81,3.65-7.22,6.97-14.91,9.98-22.98-21.49-9.48-46.8-15.18-73.97-15.75v95.54Z"/>
    <path class="cls-1" d="M889.79,349.32c3.65-7.22,6.97-14.91,9.98-22.98-21.49-9.48-46.8-15.18-73.97-15.75v95.54c23.94-2.23,46.52-22.2,63.99-56.81Z"/>
    <path class="cls-1" d="M907.96,330.2c-3.05,8.13-6.43,15.88-10.12,23.18-11.27,22.32-24.72,39.02-39.49,49.44,33.48-6.35,64.03-21.08,89.32-41.98-10.07-11.99-23.61-22.43-39.71-30.64Z"/>
    <path class="cls-1" d="M558.09,109.63h41.14c-1.15-4.03-2.35-8.01-3.65-11.88-11.57,5.07-24.16,9.09-37.49,11.88Z"/>
    <path class="cls-1" d="M509.61,9.5c-23.94,2.23-46.52,22.2-63.99,56.81-3.65,7.22-6.97,14.91-9.98,22.98,21.49,9.48,46.8,15.18,73.97,15.75V9.5Z"/>
    <path class="cls-1" d="M919.29,212.2h-93.5v89.36c28.16.57,54.46,6.46,76.94,16.32,10.39-31.16,16.13-67.52,16.55-105.68Z"/>
    <path class="cls-1" d="M582.63,66.31c-17.47-34.61-40.05-54.57-63.99-56.81v95.54c27.17-.57,52.48-6.27,73.97-15.75-3-8.07-6.33-15.76-9.98-22.98Z"/>
    <path class="cls-1" d="M603.81,93.87c1.73,5.12,3.32,10.39,4.8,15.76h29.65c6.63-12.33,14.47-23.92,23.37-34.61-4.55-5.04-9.34-9.85-14.38-14.41-11.07,13.1-25.9,24.42-43.44,33.25Z"/>
    <path class="cls-1" d="M734.61,85.17c3.05-8.13,6.43-15.88,10.11-23.18,11.27-22.32,24.73-39.02,39.49-49.44-33.48,6.35-64.03,21.08-89.32,41.98,10.07,11.99,23.61,22.43,39.71,30.64Z"/>
    <path class="cls-1" d="M424.44,322.02c-1.73-5.12-3.32-10.39-4.8-15.77h-29.19c-6.72,12.41-14.68,24.04-23.69,34.77,4.5,4.98,9.26,9.74,14.24,14.25,11.07-13.1,25.9-24.42,43.44-33.25Z"/>
    <path class="cls-1" d="M429.02,109.63h41.14c-13.33-2.79-25.92-6.81-37.49-11.88-1.29,3.88-2.5,7.85-3.65,11.88Z"/>
    <path class="cls-1" d="M686.65,109.63c-5.59-9.77-11.94-19.04-19.04-27.68-7.09,8.64-13.42,17.91-18.99,27.68h38.03Z"/>
    <path class="cls-1" d="M902.74,97.49c-22.48,9.86-48.78,15.74-76.94,16.32v89.37h93.5c-.42-38.17-6.16-74.52-16.55-105.68Z"/>
    <path class="cls-1" d="M608.61,306.25c-1.48,5.38-3.07,10.64-4.8,15.77,17.54,8.83,32.37,20.15,43.44,33.25,5.12-4.63,9.99-9.53,14.6-14.66-8.86-10.61-16.7-22.11-23.33-34.35h-29.91Z"/>
    <path class="cls-1" d="M599.23,306.25h-41.14c13.33,2.79,25.92,6.81,37.49,11.88,1.29-3.88,2.5-7.85,3.65-11.88Z"/>
    <path class="cls-1" d="M600.8,330.46c-3.05,8.13-6.43,15.88-10.12,23.18-11.27,22.32-24.72,39.02-39.49,49.44,33.48-6.35,64.03-21.08,89.32-41.98-10.07-11.99-23.61-22.43-39.71-30.64Z"/>
    <path class="cls-1" d="M667.8,333.68c7.02-8.57,13.31-17.75,18.84-27.43h-37.74c5.55,9.67,11.85,18.86,18.9,27.43Z"/>
    <path class="cls-1" d="M736.11,109.63h42.47c-13.8-2.8-26.81-6.9-38.75-12.14-1.32,3.96-2.55,8.02-3.72,12.14Z"/>
    <path class="cls-1" d="M590.69,62.24c3.69,7.3,7.06,15.05,10.12,23.18,16.1-8.21,29.64-18.65,39.71-30.64-25.29-20.91-55.84-35.63-89.32-41.98,14.77,10.42,28.22,27.12,39.49,49.44Z"/>
    <path class="cls-1" d="M518.64,406.38c23.94-2.23,46.52-22.2,63.99-56.81,3.65-7.22,6.97-14.91,9.98-22.98-21.49-9.48-46.8-15.18-73.97-15.75v95.54Z"/>
    <path class="cls-1" d="M470.16,306.25h-41.14c1.15,4.03,2.35,8.01,3.65,11.88,11.57-5.07,24.16-9.09,37.49-11.88Z"/>
    <path class="cls-1" d="M445.62,349.57c17.47,34.61,40.05,54.57,63.99,56.81v-95.54c-27.17.57-52.48,6.27-73.97,15.75,3.01,8.07,6.33,15.76,9.98,22.98Z"/>
    <path class="cls-1" d="M437.56,353.64c-3.69-7.3-7.06-15.05-10.12-23.18-16.1,8.21-29.64,18.65-39.71,30.64,25.29,20.9,55.84,35.63,89.32,41.98-14.77-10.42-28.22-27.12-39.49-49.44Z"/>
    <path class="cls-1" d="M731.6,321.76c-1.7-5.04-3.27-10.23-4.73-15.51h-29.85c-6.61,12.24-14.4,23.74-23.24,34.35,4.55,5.04,9.34,9.85,14.38,14.41,11.07-13.1,25.9-24.42,43.44-33.25Z"/>
    <path class="cls-1" d="M744.72,353.39c-3.69-7.3-7.06-15.05-10.11-23.18-16.1,8.21-29.64,18.65-39.71,30.64,25.29,20.91,55.84,35.63,89.32,41.98-14.77-10.42-28.22-27.12-39.49-49.44Z"/>
    <path class="cls-1" d="M816.77,9.25c-23.94,2.23-46.52,22.2-63.99,56.81-3.65,7.22-6.97,14.91-9.98,22.98,21.49,9.48,46.8,15.18,73.97,15.75V9.25Z"/>
    <path class="cls-1" d="M776.06,306.25h-39.81c1.13,3.94,2.31,7.83,3.57,11.63,11.21-4.92,23.37-8.85,36.23-11.63Z"/>
    <path class="cls-1" d="M889.79,66.06c-17.47-34.61-40.05-54.57-63.99-56.81v95.54c27.17-.57,52.48-6.27,73.97-15.75-3-8.07-6.33-15.76-9.98-22.98Z"/>
    <path class="cls-1" d="M341.6,306.25c5.63,9.84,12.03,19.18,19.2,27.88,7.19-8.69,13.61-18.04,19.26-27.88h-38.46Z"/>
    <path class="cls-1" d="M752.78,349.32c17.47,34.61,40.05,54.57,63.99,56.81v-95.54c-27.17.57-52.48,6.27-73.97,15.75,3.01,8.07,6.33,15.76,9.98,22.98Z"/>
    <path class="cls-1" d="M289.14,317.88c1.27-3.8,2.45-7.69,3.57-11.63h-39.81c12.87,2.78,25.02,6.72,36.23,11.63Z"/>
    <path class="cls-1" d="M731.6,93.61c-17.54-8.83-32.37-20.15-43.44-33.25-5.12,4.63-9.99,9.53-14.6,14.66,8.92,10.68,16.8,22.27,23.46,34.61h29.71c1.5-5.47,3.12-10.82,4.88-16.02Z"/>
    <path class="cls-1" d="M109.68,203.18h93.5v-89.37c-28.16-.57-54.46-6.46-76.94-16.32-10.39,31.16-16.13,67.52-16.55,105.68Z"/>
    <path class="cls-1" d="M297.37,93.61c1.76,5.2,3.38,10.55,4.88,16.02h28.98c6.75-12.5,14.75-24.22,23.82-35.02-4.5-4.98-9.26-9.74-14.24-14.25-11.07,13.1-25.9,24.42-43.44,33.25Z"/>
    <path class="cls-1" d="M139.18,66.06c-3.65,7.22-6.97,14.91-9.98,22.98,21.49,9.48,46.8,15.18,73.97,15.75V9.25c-23.94,2.23-46.52,22.2-63.99,56.81Z"/>
    <path class="cls-1" d="M361.01,81.5c-7.25,8.77-13.72,18.2-19.41,28.13h38.75c-5.66-9.93-12.11-19.36-19.34-28.13Z"/>
    <path class="cls-1" d="M302.1,306.25c-1.46,5.29-3.03,10.47-4.73,15.51,17.54,8.83,32.37,20.15,43.44,33.25,4.9-4.43,9.58-9.1,14.02-13.99-8.98-10.73-16.91-22.37-23.6-34.77h-29.13Z"/>
    <path class="cls-1" d="M139.18,349.32c17.47,34.61,40.05,54.57,63.99,56.81v-95.54c-27.17.57-52.48,6.27-73.97,15.75,3.01,8.07,6.33,15.76,9.98,22.98Z"/>
    <path class="cls-1" d="M121.01,85.17c3.05-8.13,6.43-15.88,10.11-23.18,11.27-22.32,24.72-39.02,39.49-49.44-33.48,6.35-64.03,21.08-89.32,41.98,10.07,11.99,23.61,22.43,39.71,30.64Z"/>
    <path class="cls-1" d="M126.23,317.88c22.48-9.86,48.78-15.74,76.94-16.32v-89.36h-93.5c.42,38.16,6.16,74.52,16.55,105.68Z"/>
    <path class="cls-1" d="M427.45,85.42c3.05-8.13,6.43-15.88,10.12-23.18,11.27-22.32,24.72-39.02,39.49-49.44-33.48,6.35-64.03,21.08-89.32,41.98,10.07,11.99,23.61,22.43,39.71,30.64Z"/>
    <path class="cls-1" d="M284.25,61.99c3.69,7.3,7.06,15.05,10.12,23.18,16.1-8.21,29.64-18.65,39.71-30.64-25.29-20.91-55.84-35.63-89.32-41.98,14.77,10.42,28.22,27.12,39.49,49.44Z"/>
    <path class="cls-1" d="M118.01,321.76c-10.91-32.32-16.92-70.04-17.35-109.56H9.14c1.27,56.56,26.25,107.38,65.42,142.81,11.07-13.1,25.9-24.42,43.44-33.25Z"/>
    <path class="cls-1" d="M294.37,330.2c-3.05,8.13-6.43,15.88-10.12,23.18-11.27,22.32-24.72,39.02-39.49,49.44,33.48-6.35,64.03-21.08,89.32-41.98-10.07-11.99-23.61-22.43-39.71-30.64Z"/>
    <path class="cls-1" d="M131.13,353.39c-3.69-7.3-7.06-15.05-10.11-23.18-16.1,8.21-29.64,18.65-39.71,30.64,25.29,20.91,55.84,35.63,89.32,41.98-14.77-10.42-28.22-27.12-39.49-49.44Z"/>
    <path class="cls-1" d="M118.01,93.61c-17.54-8.83-32.37-20.15-43.44-33.25C35.39,95.8,10.41,146.61,9.14,203.18h91.51c.43-39.52,6.44-77.24,17.35-109.56Z"/>
    <path class="cls-1" d="M419.64,109.63c1.48-5.38,3.07-10.64,4.8-15.76-17.54-8.83-32.37-20.15-43.44-33.25-4.9,4.43-9.58,9.1-14.02,13.99,9.04,10.8,17.01,22.53,23.73,35.02h28.93Z"/>
    <path class="cls-2" d="M294.37,85.17c1.04,2.77,2.04,5.59,3,8.44,17.54-8.83,32.37-20.15,43.44-33.25-2.2-1.99-4.44-3.94-6.73-5.83-10.07,11.99-23.61,22.43-39.71,30.64Z"/>
    <path class="cls-2" d="M289.14,97.49c-.95-2.86-1.94-5.68-2.98-8.46-21.49,9.48-46.8,15.18-73.97,15.75v4.84h38.19c13.8-2.8,26.81-6.9,38.75-12.14Z"/>
    <path class="cls-2" d="M118.01,93.61c.96-2.86,1.96-5.67,3-8.44-16.1-8.21-29.64-18.65-39.71-30.64-2.29,1.89-4.53,3.84-6.73,5.83,11.07,13.1,25.9,24.42,43.44,33.25Z"/>
    <path class="cls-2" d="M126.23,97.49c22.48,9.86,48.78,15.74,76.94,16.32v-9.02c-27.17-.57-52.48-6.27-73.97-15.75-1.03,2.77-2.02,5.59-2.98,8.46Z"/>
    <path class="cls-2" d="M212.2,306.25v4.34c27.17.57,52.48,6.27,73.97,15.75,1.03-2.77,2.02-5.59,2.97-8.46-11.21-4.92-23.37-8.85-36.23-11.63h-40.71Z"/>
    <path class="cls-2" d="M121.01,330.2c-1.04-2.77-2.04-5.58-3-8.44-17.54,8.83-32.37,20.15-43.44,33.25,2.2,1.99,4.44,3.94,6.73,5.83,10.07-11.99,23.61-22.43,39.71-30.64Z"/>
    <path class="cls-2" d="M129.21,326.34c21.49-9.48,46.8-15.18,73.97-15.75v-9.02c-28.16.57-54.46,6.46-76.94,16.32.95,2.86,1.94,5.68,2.98,8.46Z"/>
    <path class="cls-2" d="M297.37,321.76c-.96,2.86-1.96,5.67-3,8.44,16.1,8.21,29.64,18.65,39.71,30.64,2.29-1.89,4.53-3.84,6.73-5.83-11.07-13.1-25.9-24.42-43.44-33.25Z"/>
    <path class="cls-2" d="M139.18,349.32c-3.65-7.22-6.97-14.91-9.98-22.98-1.03-2.77-2.02-5.59-2.98-8.46-10.39-31.16-16.13-67.52-16.55-105.68h-9.03c.43,39.52,6.44,77.24,17.35,109.56.96,2.86,1.96,5.67,3,8.44,3.05,8.13,6.43,15.88,10.11,23.18,11.27,22.32,24.72,39.02,39.49,49.44,10.58,2.01,21.46,3.16,32.56,3.41v-.11c-23.94-2.23-46.52-22.2-63.99-56.81Z"/>
    <path class="cls-2" d="M131.13,61.99c-3.69,7.3-7.06,15.05-10.11,23.18-1.04,2.77-2.04,5.59-3,8.44-10.91,32.32-16.92,70.04-17.35,109.56h9.03c.42-38.16,6.16-74.52,16.55-105.68.96-2.86,1.94-5.68,2.98-8.46,3.01-8.07,6.33-15.76,9.98-22.98,17.47-34.61,40.05-54.57,63.99-56.81v-.11c-11.1.25-21.98,1.4-32.56,3.41-14.77,10.42-28.22,27.12-39.49,49.44Z"/>
    <path class="cls-2" d="M284.25,353.39c3.69-7.3,7.06-15.05,10.12-23.18,1.04-2.77,2.04-5.58,3-8.44,1.7-5.04,3.27-10.23,4.73-15.51h-9.38c-1.13,3.94-2.31,7.83-3.57,11.63-.95,2.86-1.94,5.68-2.97,8.46-3.01,8.07-6.33,15.76-9.98,22.98-17.47,34.61-40.05,54.57-63.99,56.81v.11c11.1-.25,21.98-1.4,32.56-3.41,14.77-10.42,28.22-27.12,39.49-49.44Z"/>
    <path class="cls-2" d="M276.19,66.06c3.65,7.22,6.97,14.91,9.98,22.98,1.03,2.77,2.02,5.59,2.98,8.46,1.32,3.96,2.55,8.02,3.72,12.14h9.38c-1.5-5.47-3.12-10.82-4.88-16.02-.96-2.86-1.96-5.67-3-8.44-3.05-8.13-6.43-15.88-10.12-23.18-11.27-22.32-24.72-39.02-39.49-49.44-10.58-2.01-21.46-3.16-32.56-3.41v.11c23.94,2.23,46.52,22.2,63.99,56.81Z"/>
    <path class="cls-2" d="M109.68,212.2h93.5v-9.03H9.14c-.03,1.51-.11,3-.11,4.51s.08,3.01.11,4.51h100.54Z"/>
    <path class="cls-2" d="M212.2,310.59v-4.34h-4.51V109.63h4.51V9.14c-1.51-.03-3-.11-4.51-.11s-3.01.08-4.51.11v397.09c1.5.03,3,.11,4.51.11s3.01-.08,4.51-.11v-95.65Z"/>
    <path class="cls-2" d="M390.71,109.63c-6.72-12.49-14.69-24.22-23.73-35.02-2.04,2.25-4.03,4.55-5.97,6.89,7.23,8.77,13.68,18.2,19.34,28.13h10.36Z"/>
    <path class="cls-2" d="M380.06,306.25c-5.65,9.84-12.07,19.18-19.26,27.88,1.93,2.34,3.93,4.64,5.96,6.89,9.01-10.73,16.97-22.36,23.69-34.77h-10.39Z"/>
    <path class="cls-2" d="M207.69,415.38c60.54,0,115.1-26.05,153.1-67.52-2.04-2.23-4.02-4.52-5.96-6.84-4.44,4.89-9.12,9.56-14.02,13.99-2.2,1.99-4.44,3.94-6.73,5.83-25.29,20.91-55.84,35.63-89.32,41.98-10.58,2.01-21.46,3.16-32.56,3.41-1.51.03-3,.11-4.51.11s-3.01-.08-4.51-.11c-11.1-.25-21.98-1.4-32.56-3.41-33.48-6.35-64.03-21.08-89.32-41.98-2.29-1.89-4.53-3.84-6.73-5.83C35.39,319.58,10.41,268.77,9.14,212.2c-.03-1.51-.11-3-.11-4.51s.08-3.01.11-4.51c1.27-56.56,26.25-107.38,65.43-142.81,2.2-1.99,4.44-3.94,6.73-5.83,25.29-20.91,55.84-35.63,89.32-41.98,10.58-2.01,21.46-3.16,32.56-3.41,1.5-.03,3-.11,4.51-.11s3.01.08,4.51.11c11.1.25,21.98,1.4,32.56,3.41,33.48,6.35,64.03,21.08,89.32,41.98,2.29,1.89,4.53,3.84,6.73,5.83,4.98,4.51,9.73,9.26,14.24,14.25,1.95-2.32,3.93-4.61,5.98-6.84C323.02,26.15,268.35,0,207.69,0,93.17,0,0,93.17,0,207.69s93.17,207.69,207.69,207.69Z"/>
    <path class="cls-2" d="M742.8,89.04c-1.03,2.77-2.02,5.59-2.97,8.46,11.94,5.23,24.95,9.34,38.75,12.14h38.19v-4.84c-27.17-.57-52.48-6.27-73.97-15.75Z"/>
    <path class="cls-2" d="M907.96,85.17c1.04,2.77,2.04,5.58,3,8.44,17.54-8.83,32.37-20.15,43.44-33.25-2.2-1.99-4.44-3.94-6.73-5.83-10.07,11.99-23.61,22.43-39.71,30.64Z"/>
    <path class="cls-2" d="M899.77,89.04c-21.49,9.48-46.8,15.18-73.97,15.75v9.02c28.16-.57,54.46-6.46,76.94-16.32-.95-2.86-1.94-5.68-2.98-8.46Z"/>
    <path class="cls-2" d="M731.6,93.61c.96-2.86,1.97-5.67,3-8.44-16.1-8.21-29.64-18.65-39.71-30.64-2.29,1.89-4.53,3.84-6.73,5.83,11.07,13.1,25.9,24.42,43.44,33.25Z"/>
    <path class="cls-2" d="M902.74,317.88c-22.48-9.86-48.78-15.74-76.94-16.32v9.02c27.17.57,52.48,6.27,73.97,15.75,1.03-2.77,2.02-5.59,2.98-8.46Z"/>
    <path class="cls-2" d="M734.61,330.2c-1.04-2.77-2.04-5.58-3-8.44-17.54,8.83-32.37,20.15-43.44,33.25,2.2,1.99,4.44,3.94,6.73,5.83,10.07-11.99,23.61-22.43,39.71-30.64Z"/>
    <path class="cls-2" d="M910.97,321.76c-.96,2.86-1.97,5.67-3,8.44,16.1,8.21,29.64,18.65,39.71,30.64,2.29-1.89,4.53-3.84,6.73-5.83-11.07-13.1-25.9-24.42-43.44-33.25Z"/>
    <path class="cls-2" d="M742.8,326.34c21.49-9.48,46.8-15.18,73.97-15.75v-4.34h-40.71c-12.87,2.78-25.02,6.72-36.23,11.63.95,2.86,1.94,5.68,2.97,8.46Z"/>
    <path class="cls-2" d="M744.72,61.99c-3.69,7.3-7.06,15.05-10.11,23.18-1.04,2.77-2.04,5.59-3,8.44-1.76,5.2-3.37,10.55-4.88,16.02h9.38c1.17-4.12,2.4-8.18,3.72-12.14.95-2.86,1.94-5.68,2.97-8.46,3.01-8.07,6.33-15.76,9.98-22.98,17.47-34.61,40.05-54.57,63.99-56.81v-.11c-11.1.25-21.98,1.4-32.56,3.41-14.77,10.42-28.22,27.12-39.49,49.44Z"/>
    <path class="cls-2" d="M889.79,66.06c3.65,7.22,6.97,14.91,9.98,22.98,1.03,2.77,2.02,5.59,2.98,8.46,10.39,31.16,16.13,67.52,16.55,105.68h9.03c-.43-39.52-6.44-77.24-17.35-109.56-.96-2.86-1.97-5.67-3-8.44-3.05-8.13-6.43-15.88-10.12-23.18-11.27-22.32-24.72-39.02-39.49-49.44-10.58-2.01-21.46-3.16-32.56-3.41v.11c23.94,2.23,46.52,22.2,63.99,56.81Z"/>
    <path class="cls-2" d="M752.78,349.32c-3.65-7.22-6.97-14.91-9.98-22.98-1.03-2.77-2.02-5.59-2.97-8.46-1.27-3.8-2.45-7.69-3.57-11.63h-9.38c1.46,5.29,3.03,10.47,4.73,15.51.96,2.86,1.97,5.67,3,8.44,3.05,8.13,6.43,15.88,10.11,23.18,11.27,22.32,24.73,39.02,39.49,49.44,10.58,2.01,21.46,3.16,32.56,3.41v-.11c-23.94-2.23-46.52-22.2-63.99-56.81Z"/>
    <path class="cls-2" d="M897.85,353.39c3.69-7.3,7.06-15.05,10.12-23.18,1.04-2.77,2.04-5.58,3-8.44,10.91-32.32,16.92-70.04,17.35-109.56h-9.03c-.42,38.16-6.16,74.52-16.55,105.68-.95,2.86-1.94,5.68-2.98,8.46-3,8.07-6.33,15.76-9.98,22.98-17.47,34.61-40.05,54.57-63.99,56.81v.11c11.1-.25,21.98-1.4,32.56-3.41,14.77-10.42,28.22-27.12,39.49-49.44Z"/>
    <path class="cls-2" d="M919.29,203.18h-93.5v9.03h194.03c.03-1.51.11-3,.11-4.51s-.08-3.01-.11-4.51h-100.54Z"/>
    <path class="cls-2" d="M816.77,104.79v4.84h4.51v196.62h-4.51v99.98c1.51.03,3,.11,4.51.11s3.01-.08,4.51-.11V9.14c-1.5-.03-3-.11-4.51-.11s-3.01.08-4.51.11v95.64Z"/>
    <path class="cls-2" d="M673.56,75.02c4.62-5.13,9.48-10.03,14.6-14.66,2.2-1.99,4.44-3.94,6.73-5.83,25.29-20.91,55.84-35.63,89.32-41.98,10.58-2.01,21.46-3.16,32.56-3.41,1.51-.03,3-.11,4.51-.11s3.01.08,4.51.11c11.1.25,21.98,1.4,32.56,3.41,33.48,6.35,64.03,21.08,89.32,41.98,2.29,1.89,4.53,3.84,6.73,5.83,39.18,35.44,64.16,86.25,65.43,142.81.03,1.51.11,3,.11,4.51s-.08,3.01-.11,4.51c-1.27,56.56-26.25,107.38-65.43,142.81-2.2,1.99-4.44,3.94-6.73,5.83-25.29,20.91-55.84,35.63-89.32,41.98-10.58,2.01-21.46,3.16-32.56,3.41-1.5.03-3,.11-4.51.11s-3.01-.08-4.51-.11c-11.1-.25-21.98-1.4-32.56-3.41-33.48-6.35-64.03-21.08-89.32-41.98-2.29-1.89-4.53-3.84-6.73-5.83-5.04-4.56-9.83-9.37-14.38-14.41-1.94,2.33-3.92,4.63-5.96,6.88,38.01,41.69,92.73,67.9,153.46,67.9,114.52,0,207.69-93.17,207.69-207.69S935.8,0,821.29,0c-60.85,0-115.68,26.31-153.7,68.15,2.05,2.24,4.03,4.54,5.98,6.88Z"/>
    <path class="cls-2" d="M638.52,306.25c6.63,12.24,14.46,23.74,23.33,34.35,2.04-2.26,4.03-4.57,5.96-6.93-7.04-8.57-13.35-17.75-18.9-27.43h-10.39Z"/>
    <path class="cls-2" d="M648.62,109.63c5.57-9.76,11.9-19.03,18.99-27.68-1.94-2.36-3.94-4.66-5.98-6.93-8.89,10.69-16.73,22.27-23.37,34.61h10.36Z"/>
    <path class="cls-2" d="M600.8,85.42c1.04,2.77,2.04,5.59,3,8.44,17.54-8.83,32.37-20.15,43.44-33.25-2.2-1.99-4.44-3.94-6.73-5.83-10.07,11.99-23.61,22.43-39.71,30.64Z"/>
    <path class="cls-2" d="M424.44,93.87c.96-2.86,1.97-5.67,3-8.44-16.1-8.21-29.64-18.65-39.71-30.64-2.29,1.89-4.53,3.84-6.73,5.83,11.07,13.1,25.9,24.42,43.44,33.25Z"/>
    <path class="cls-2" d="M592.61,89.29c-21.49,9.48-46.8,15.18-73.97,15.75v4.59h39.45c13.33-2.79,25.92-6.81,37.49-11.88-.95-2.86-1.94-5.68-2.98-8.46Z"/>
    <path class="cls-2" d="M435.64,89.29c-1.03,2.77-2.02,5.59-2.97,8.46,11.57,5.07,24.16,9.09,37.49,11.88h39.45v-4.59c-27.17-.57-52.48-6.27-73.97-15.75Z"/>
    <path class="cls-2" d="M435.64,326.59c21.49-9.48,46.8-15.18,73.97-15.75v-4.59h-39.45c-13.33,2.79-25.92,6.81-37.49,11.88.95,2.86,1.94,5.68,2.97,8.46Z"/>
    <path class="cls-2" d="M592.61,326.59c1.03-2.77,2.02-5.59,2.98-8.46-11.58-5.07-24.16-9.09-37.49-11.88h-39.45v4.59c27.17.57,52.48,6.27,73.97,15.75Z"/>
    <path class="cls-2" d="M603.81,322.02c-.96,2.86-1.97,5.67-3,8.44,16.1,8.21,29.64,18.65,39.71,30.64,2.29-1.89,4.53-3.84,6.73-5.83-11.07-13.1-25.9-24.42-43.44-33.25Z"/>
    <path class="cls-2" d="M427.45,330.46c-1.04-2.77-2.04-5.58-3-8.44-17.54,8.83-32.37,20.15-43.44,33.25,2.2,1.99,4.44,3.94,6.73,5.83,10.07-11.99,23.61-22.43,39.71-30.64Z"/>
    <path class="cls-2" d="M437.56,62.24c-3.69,7.3-7.06,15.05-10.12,23.18-1.04,2.77-2.04,5.58-3,8.44-1.73,5.12-3.32,10.39-4.8,15.76h9.38c1.15-4.03,2.35-8.01,3.65-11.88.95-2.86,1.94-5.68,2.97-8.46,3.01-8.07,6.33-15.76,9.98-22.98,17.47-34.61,40.05-54.57,63.99-56.81v-.11c-11.1.25-21.98,1.4-32.56,3.41-14.77,10.42-28.22,27.12-39.49,49.44Z"/>
    <path class="cls-2" d="M582.63,66.31c3.65,7.22,6.97,14.91,9.98,22.98,1.03,2.77,2.02,5.59,2.98,8.46,1.29,3.88,2.5,7.85,3.65,11.88h9.38c-1.48-5.38-3.07-10.64-4.8-15.76-.96-2.86-1.97-5.67-3-8.44-3.05-8.13-6.43-15.88-10.12-23.18-11.27-22.32-24.72-39.02-39.49-49.44-10.58-2.01-21.46-3.16-32.56-3.41v.11c23.94,2.23,46.52,22.2,63.99,56.81Z"/>
    <path class="cls-2" d="M445.62,349.57c-3.65-7.22-6.97-14.91-9.98-22.98-1.03-2.77-2.02-5.59-2.97-8.46-1.29-3.88-2.5-7.85-3.65-11.88h-9.38c1.48,5.38,3.07,10.65,4.8,15.77.96,2.86,1.97,5.67,3,8.44,3.05,8.13,6.43,15.88,10.12,23.18,11.27,22.32,24.72,39.02,39.49,49.44,10.58,2.01,21.46,3.16,32.56,3.41v-.11c-23.94-2.23-46.52-22.2-63.99-56.81Z"/>
    <path class="cls-2" d="M590.69,353.64c3.69-7.3,7.06-15.05,10.12-23.18,1.04-2.77,2.04-5.59,3-8.44,1.73-5.12,3.32-10.39,4.8-15.77h-9.38c-1.15,4.03-2.35,8.01-3.65,11.88-.95,2.86-1.94,5.68-2.98,8.46-3,8.07-6.33,15.76-9.98,22.98-17.47,34.61-40.05,54.57-63.99,56.81v.11c11.1-.25,21.98-1.4,32.56-3.41,14.77-10.42,28.22-27.12,39.49-49.44Z"/>
    <path class="cls-2" d="M518.64,310.84v-4.59h-9.03v100.24c1.51.03,3,.11,4.51.11s3.01-.08,4.51-.11v-95.64Z"/>
    <path class="cls-2" d="M509.61,105.04v4.59h9.03V9.39c-1.5-.03-3-.11-4.51-.11s-3.01.08-4.51.11v95.64Z"/>
    <path class="cls-2" d="M355.05,74.61c-9.07,10.8-17.07,22.52-23.82,35.02h10.37c5.68-9.93,12.15-19.36,19.41-28.13,1.94-2.34,3.93-4.64,5.97-6.89,4.44-4.89,9.12-9.56,14.02-13.99,2.2-1.99,4.44-3.94,6.73-5.83,25.29-20.91,55.84-35.63,89.32-41.98,10.58-2.01,21.46-3.16,32.56-3.41,1.51-.03,3-.11,4.51-.11s3.01.08,4.51.11c11.1.25,21.98,1.4,32.56,3.41,33.48,6.35,64.03,21.08,89.32,41.98,2.29,1.89,4.53,3.84,6.73,5.83,5.04,4.55,9.83,9.37,14.38,14.41,2.04,2.26,4.04,4.57,5.98,6.93,7.1,8.64,13.46,17.91,19.04,27.68h10.37c-6.66-12.34-14.54-23.92-23.46-34.61-1.95-2.33-3.93-4.63-5.98-6.88C629.58,26.46,574.85.25,514.13.25s-115.1,26.05-153.1,67.52c-2.05,2.23-4.03,4.52-5.98,6.84Z"/>
    <path class="cls-2" d="M673.78,340.6c8.83-10.61,16.63-22.11,23.24-34.35h-10.37c-5.53,9.67-11.82,18.86-18.84,27.43-1.93,2.36-3.92,4.66-5.96,6.93-4.61,5.13-9.48,10.03-14.6,14.66-2.2,1.99-4.44,3.94-6.73,5.83-25.29,20.91-55.84,35.63-89.32,41.98-10.58,2.01-21.46,3.16-32.56,3.41-1.5.03-3,.11-4.51.11s-3.01-.08-4.51-.11c-11.1-.25-21.98-1.4-32.56-3.41-33.48-6.35-64.03-21.08-89.32-41.98-2.29-1.89-4.53-3.84-6.73-5.83-4.98-4.51-9.73-9.26-14.24-14.25-2.04-2.25-4.03-4.55-5.96-6.89-7.17-8.7-13.57-18.04-19.2-27.88h-10.37c6.69,12.4,14.62,24.04,23.6,34.77,1.94,2.32,3.92,4.61,5.96,6.84,38.01,41.61,92.67,67.77,153.34,67.77s115.68-26.31,153.7-68.15c2.04-2.24,4.02-4.54,5.96-6.88Z"/>
    <path class="cls-2" d="M825.8,310.76H203.17V105.12h622.62v205.65ZM212.2,301.74h604.57V114.14H212.2v187.59Z"/>
    <g>
      <path class="cls-2" d="M320.83,152.44h27.7v88.64h48.09v22.53h-75.79v-111.17Z"/>
      <path class="cls-2" d="M418.88,208.06v-.15c0-35.01,23.79-57.99,59.02-57.99s58.95,22.97,58.95,57.99v.15c0,35.01-23.79,58.06-58.95,58.06s-59.02-23.05-59.02-58.06ZM507.82,208.06v-.15c0-22.45-12.26-35.46-29.92-35.46s-29.99,13-29.99,35.46v.15c0,22.46,12.26,35.46,29.99,35.46s29.92-13,29.92-35.46Z"/>
      <path class="cls-2" d="M577.81,152.44h27.41l-14.33,42.99h-24.01l10.93-42.99Z"/>
      <path class="cls-2" d="M636.56,152.44h81.85v22.53h-54.15v21.49h49.12v22.53h-49.12v44.62h-27.7v-111.17Z"/>
    </g>
  </g>
</svg>