<?xml version="1.0" encoding="UTF-8"?>
<svg id="Camada_2" data-name="Camada 2" xmlns="http://www.w3.org/2000/svg" viewBox="0 0 162.17 256.54">
  <g id="Layer_1" data-name="Layer 1">
    <g>
      <rect width="13.49" height="229.57"/>
      <rect x="13.49" y="13.4" width="13.49" height="13.49"/>
      <rect x="26.98" y="26.89" width="13.49" height="13.49"/>
      <rect x="40.47" y="40.37" width="13.49" height="13.49"/>
      <rect x="53.95" y="53.86" width="13.49" height="13.49"/>
      <rect x="67.44" y="67.35" width="13.49" height="13.49"/>
      <rect x="80.93" y="80.84" width="13.49" height="13.49"/>
      <rect x="94.42" y="94.33" width="13.49" height="13.49"/>
      <rect x="108.22" y="107.82" width="13.49" height="13.49"/>
      <rect x="121.71" y="121.31" width="13.49" height="13.49"/>
      <rect x="135.19" y="134.79" width="13.49" height="13.49"/>
      <rect x="148.68" y="148.28" width="13.49" height="13.49"/>
      <rect x="94.51" y="161.77" width="67.66" height="13.49"/>
      <rect x="94.51" y="175.26" width="13.49" height="13.49"/>
      <rect x="108" y="188.75" width="13.49" height="27.15"/>
      <rect x="121.49" y="215.9" width="13.49" height="27.15"/>
      <rect x="94.51" y="243.06" width="26.98" height="13.49"/>
      <rect x="81.02" y="215.9" width="13.49" height="27.15"/>
      <rect x="67.53" y="188.75" width="13.49" height="27.15"/>
      <rect x="54" y="175.26" width="13.49" height="13.49"/>
      <rect x="40.51" y="188.84" width="13.49" height="13.49"/>
      <rect x="27.02" y="202.41" width="13.49" height="13.49"/>
      <rect x="13.49" y="215.9" width="13.49" height="13.49"/>
    </g>
  </g>
</svg>